<?xml version="1.0" encoding="UTF-8"?>
<svg width="34px" height="38px" viewBox="0 0 34 38" version="1.1" xmlns="http://www.w3.org/2000/svg" xmlns:xlink="http://www.w3.org/1999/xlink">
    <!-- Generator: Sketch 46.2 (44496) - http://www.bohemiancoding.com/sketch -->
    <title>ic_notification</title>
    <desc>Created with Sketch.</desc>
    <defs></defs>
    <g id="notificatiom" stroke="none" stroke-width="1" fill="none" fill-rule="evenodd">
        <g id="notification-copy-3" transform="translate(-213.000000, -291.000000)">
            <g id="ic_notification" transform="translate(205.000000, 285.000000)">
                <rect id="Rectangle-3" x="0" y="0" width="50" height="50"></rect>
                <path d="M39.4069132,30.7461209 L39.4071621,30.7463359 C38.7305028,30.1620257 38.4729763,29.9052952 38.2684488,29.5417492 C37.564491,28.4263513 37.2725681,26.7407524 36.964379,23.5070327 C36.9342489,23.190051 36.91461,22.9878481 36.8971852,22.8124568 C36.4146855,19.4705185 35.3493678,16.3800597 33.5043014,13.9173929 C32.0042517,11.9155956 30.1442467,10.5888402 27.9626041,9.95821877 L27.6322835,9.86273693 L27.6032362,9.5201224 C27.4911865,8.19848788 26.3597272,7.16666667 24.9999899,7.16666667 C23.6399557,7.16666667 22.5084201,8.19864531 22.3967561,9.52041191 L22.3677945,9.86323029 L22.0372634,9.95868925 C19.8556285,10.5887559 17.995778,11.9154463 16.4956727,13.917948 C14.6547581,16.3745284 13.5868223,19.4631109 13.1120558,22.7351727 C13.0867329,22.9753681 13.0684762,23.1610997 13.0355901,23.5069258 C12.7270594,26.7450616 12.443801,28.4129856 11.7844564,29.4520568 C11.5349904,29.8913047 11.266356,30.1644492 10.5933272,30.7462931 C10.2732834,31.0229185 10.1229939,31.1582772 9.93760636,31.3450388 C8.73719387,32.5543484 8.42386545,33.8141948 9.39699323,35.5958831 C9.59721605,35.9625987 9.94237989,36.1666667 10.385093,36.1666667 L39.6151089,36.1666667 C40.0344089,36.1666667 40.4100084,35.9490253 40.6032209,35.5959702 C41.5761118,33.8143002 41.2627348,32.5543819 40.0622799,31.3447445 C39.876993,31.1580403 39.7267283,31.0226557 39.4069132,30.7461209 Z" id="Shape" stroke="#31ABBA"></path>
                <path d="M29.0660685,38.3333333 L21.0947165,38.3333333 C20.6566817,38.3333333 20.3985825,38.4932307 20.2590132,38.633875 C20.0549802,38.8396748 19.9669085,39.1203109 20.011189,39.4311861 C20.3278804,41.6569133 22.4715719,43.3333333 24.9978864,43.3333333 C27.5519679,43.3333333 29.6985951,41.6330919 29.9909445,39.3797362 C30.010149,39.2321303 30.0247053,38.8662156 29.7474016,38.5894954 C29.5770071,38.4195909 29.3350544,38.3333333 29.0660685,38.3333333 Z" id="Shape" fill="#31ABBA"></path>
            </g>
        </g>
    </g>
</svg>