<svg height="50px" width="142px" version="1.1" viewBox="0 0 142 50">
  <defs />
  <g fill="none" stroke="none" strokeWidth="1">
    <g id="Combined-Shape" fill="#FF9442" transform="translate(-2139.000000, -5884.000000)">
      <path d="M2164.20313,5908.21371 L2156.81148,5910.87778 C2152.10631,5912.57375 2146.89429,5910.14265 2145.18897,5905.45261 C2143.48287,5900.76003 2145.92738,5895.56447 2150.63575,5893.86735 L2161.61882,5889.90881 C2161.62762,5889.90564 2161.63644,5889.90256 2161.64527,5889.89956 L2162.6023,5889.55471 C2163.17418,5889.34852 2163.46797,5888.72382 2163.26289,5888.15951 C2163.05635,5887.5917 2162.42211,5887.29585 2161.84726,5887.503 L2158.40922,5888.74212 C2158.40061,5888.74522 2158.39199,5888.74824 2158.38336,5888.75117 L2149.88024,5891.81588 C2144.02154,5893.9277 2140.99326,5900.36399 2143.11182,5906.19178 C2145.23231,5912.02318 2151.70446,5915.04153 2157.56629,5912.92882 L2165.17197,5910.18775 C2165.92107,5909.91778 2166.74708,5910.30649 2167.01692,5911.05597 C2167.28675,5911.80545 2166.89823,5912.63188 2166.14914,5912.90185 L2158.54348,5915.64291 C2151.18911,5918.29356 2143.06676,5914.50563 2140.40218,5907.17796 C2137.73726,5899.84724 2141.54514,5891.75402 2148.90297,5889.10182 L2159.88603,5885.14329 C2159.89486,5885.1401 2159.9037,5885.13701 2159.91255,5885.13401 L2160.87014,5884.78888 C2162.93763,5884.04388 2165.22177,5885.10933 2165.97253,5887.17333 C2166.72378,5889.24047 2165.65079,5891.522 2163.57957,5892.26877 L2160.14195,5893.50747 C2160.13737,5893.50913 2160.13278,5893.51075 2160.12818,5893.51236 L2151.613,5896.58141 C2148.4038,5897.73816 2146.73891,5901.27672 2147.89861,5904.46641 C2149.05992,5907.66029 2152.62172,5909.32166 2155.83423,5908.16372 L2163.4395,5905.42265 C2163.5187,5905.3941 2163.59876,5905.37292 2163.67893,5905.35875 C2168.3219,5903.82445 2173.3906,5906.2517 2175.06788,5910.86367 C2176.77441,5915.55652 2174.32969,5920.75265 2169.62113,5922.44984 L2157.15876,5926.94151 L2153.72101,5928.18053 C2153.14907,5928.38681 2152.8551,5929.01166 2153.06043,5929.57616 C2153.26665,5930.14361 2153.90103,5930.43938 2154.4768,5930.23186 L2157.91395,5928.99317 L2170.3763,5924.50151 C2176.23549,5922.38964 2179.26398,5915.95295 2177.14467,5910.12515 C2175.02456,5904.29413 2168.55237,5901.27588 2162.69025,5903.38857 L2155.08498,5906.12964 C2154.33588,5906.39963 2153.50987,5906.01092 2153.24002,5905.26145 C2152.97017,5904.51198 2153.35867,5903.68554 2154.10777,5903.41556 L2161.71306,5900.67448 C2169.06776,5898.02388 2177.19017,5901.81169 2179.85427,5909.13887 C2182.5201,5916.46953 2178.71194,5924.56334 2171.35354,5927.21558 L2158.89113,5931.70726 L2155.45398,5932.94595 C2153.38572,5933.69142 2151.1008,5932.62608 2150.35079,5930.56234 C2149.59893,5928.49532 2150.67245,5926.2135 2152.74351,5925.46656 L2156.18155,5924.22743 L2168.64388,5919.73578 C2171.85323,5918.57897 2173.5183,5915.03995 2172.35831,5911.85003 C2171.19695,5908.6567 2167.63536,5906.99558 2164.42264,5908.15348 C2164.35,5908.17966 2164.27664,5908.19964 2164.20313,5908.21371 Z M2193.43956,5904.22698 C2193.43956,5904.59825 2193.60464,5904.89344 2193.93479,5905.11255 C2194.26494,5905.33166 2195.02728,5905.59033 2196.22183,5905.88856 C2197.41637,5906.18679 2198.34379,5906.63414 2199.00409,5907.23061 C2199.66439,5907.82707 2199.99454,5908.69741 2199.99454,5909.84166 C2199.99454,5910.9859 2199.57135,5911.91406 2198.72496,5912.62617 C2197.87857,5913.33828 2196.76508,5913.69433 2195.38445,5913.69433 C2193.39153,5913.69433 2191.59673,5912.94571 2190,5911.44846 L2191.67476,5909.36692 C2193.03138,5910.57203 2194.28594,5911.17457 2195.43847,5911.17457 C2195.95471,5911.17457 2196.35989,5911.06197 2196.65402,5910.83678 C2196.94816,5910.61158 2197.09522,5910.30727 2197.09522,5909.92382 C2197.09522,5909.54038 2196.93915,5909.23606 2196.62701,5909.01087 C2196.31487,5908.78567 2195.69659,5908.55743 2194.77217,5908.32615 C2193.30749,5907.97314 2192.23602,5907.51362 2191.55771,5906.94759 C2190.8794,5906.38155 2190.54025,5905.49295 2190.54025,5904.28176 C2190.54025,5903.07057 2190.96944,5902.13632 2191.82783,5901.47899 C2192.68622,5900.82166 2193.7577,5900.493 2195.04229,5900.493 C2195.88268,5900.493 2196.72305,5900.63907 2197.56343,5900.93121 C2198.40382,5901.22336 2199.13615,5901.63723 2199.76043,5902.17283 L2198.33779,5904.25437 C2197.24528,5903.41445 2196.11678,5902.99449 2194.95225,5902.99449 C2194.48403,5902.99449 2194.11487,5903.10709 2193.84475,5903.33229 C2193.57462,5903.55748 2193.43956,5903.85571 2193.43956,5904.22698 Z M2204.82073,5913.54826 L2202.1195,5913.54826 L2202.1195,5900 L2204.82073,5900 L2204.82073,5904.65607 C2205.59956,5903.76359 2206.55251,5903.56053 2207.56698,5903.56053 C2208.58144,5903.56053 2209.43682,5903.9257 2210.13314,5904.65607 C2210.82946,5905.38644 2211.17762,5906.36025 2211.17762,5907.57753 L2211.17762,5913.54826 L2208.47639,5913.54826 L2208.47639,5908.18008 C2208.47639,5906.67065 2207.93015,5905.91595 2206.83765,5905.91595 C2206.2974,5905.91595 2205.82619,5906.11375 2205.424,5906.50937 C2205.02182,5906.90499 2204.82073,5907.48623 2204.82073,5908.25312 L2204.82073,5913.54826 Z M2213.14051,5908.59091 C2213.14051,5904.75345 2216.61008,5903.56053 2217.85865,5903.56053 C2219.2226,5903.56053 2223.04431,5904.00179 2223.11704,5908.59091 C2223.11704,5910.5189 2223.11704,5913.54826 2223.11704,5913.54826 L2220.3978,5913.54826 L2220.3978,5912.74485 C2219.62945,5913.37784 2218.75306,5913.69433 2217.76861,5913.69433 C2216.53204,5913.69433 2215.45156,5913.22568 2214.52714,5912.28838 C2213.60271,5911.35107 2213.14051,5910.11859 2213.14051,5908.59091 Z M2218.20081,5911.37542 C2218.82509,5911.37542 2219.35333,5911.12284 2219.78553,5910.61767 C2220.21772,5910.1125 2220.43382,5909.46126 2220.43382,5908.66394 C2220.43382,5907.86663 2220.21772,5907.20018 2219.78553,5906.66457 C2219.35333,5906.12897 2218.81909,5905.86117 2218.1828,5905.86117 C2217.54651,5905.86117 2217.00026,5906.12593 2216.54405,5906.65544 C2216.08784,5907.18496 2215.85974,5907.85141 2215.85974,5908.65482 C2215.85974,5909.45822 2216.09385,5910.1125 2216.56206,5910.61767 C2217.03028,5911.12284 2217.57652,5911.37542 2218.20081,5911.37542 Z M2230.86055,5906.13506 C2230.05619,5906.13506 2228.46547,5905.97295 2228.46547,5909.29388 L2228.46547,5913.54826 L2225.76424,5913.54826 L2225.76424,5908.35574 C2225.76424,5904.81312 2227.88993,5903.56053 2229.45365,5903.56053 C2231.01738,5903.56053 2231.10237,5903.56644 2231.36478,5903.56053 L2231.38279,5906.13506 L2230.86055,5906.13506 Z M2237.73968,5911.44846 C2238.25592,5911.44846 2238.75714,5911.3176 2239.24336,5911.05589 C2239.72958,5910.79417 2240.11676,5910.44421 2240.40489,5910.00599 L2241.95359,5911.70409 C2240.71702,5913.03092 2239.3214,5913.69433 2237.76669,5913.69433 C2236.21198,5913.69433 2234.97243,5913.21351 2234.048,5912.25186 C2233.12358,5911.29021 2232.66137,5910.06382 2232.66137,5908.57265 C2232.66137,5907.08148 2233.1686,5905.87335 2234.18306,5904.94822 C2235.19753,5904.02308 2236.36505,5903.56053 2237.68565,5903.56053 C2239.00626,5903.56053 2240.11075,5903.93788 2240.99916,5904.69259 C2241.88757,5905.4473 2242.36778,5906.42111 2242.43981,5907.61405 L2242.43981,5907.96097 L2235.99288,5910.66332 C2236.40107,5911.18675 2236.98333,5911.44846 2237.73968,5911.44846 Z M2237.82972,5905.93421 C2237.16942,5905.93421 2236.58416,5906.15332 2236.07392,5906.59154 C2235.56369,5907.02976 2235.30857,5907.63839 2235.30857,5908.41745 C2235.30857,5908.56352 2235.31458,5908.67307 2235.32658,5908.74611 L2239.5405,5907.0115 C2239.38442,5906.2933 2238.81417,5905.93421 2237.82972,5905.93421 Z M2244.56478,5913.54826 L2244.56478,5906.26287 C2244.56478,5904.37609 2245.03899,5902.94276 2245.98742,5901.96285 C2246.93586,5900.98294 2248.25645,5900.493 2249.94922,5900.493 C2251.642,5900.493 2252.95958,5900.97686 2253.90202,5901.94459 C2254.84445,5902.91233 2255.31566,5904.31523 2255.31566,5906.15332 L2255.31566,5913.54826 L2252.48838,5913.54826 L2252.48838,5910.55376 L2247.37405,5910.55376 L2247.37405,5913.54826 L2244.56478,5913.54826 Z M2247.37405,5906.17158 L2247.37405,5908.03401 L2252.48838,5908.03401 L2252.48838,5906.26287 C2252.48838,5905.24036 2252.26027,5904.44609 2251.80406,5903.88006 C2251.34786,5903.31402 2250.72058,5903.03101 2249.92221,5903.03101 C2249.12384,5903.03101 2248.49957,5903.30185 2248.04936,5903.84354 C2247.59915,5904.38523 2247.37405,5905.16124 2247.37405,5906.17158 Z M2268.02103,5908.6328 C2268.02103,5910.08137 2267.57983,5911.29254 2266.69743,5912.26637 C2265.81502,5913.24019 2264.78256,5913.72709 2263.60002,5913.72709 C2262.41748,5913.72709 2261.55632,5913.60777 2260.74572,5913.06689 L2260.74572,5917.12329 L2258.0445,5917.12329 L2258.0445,5909.04805 C2258.0445,5904.59109 2261.31839,5903.51864 2263.18682,5903.51864 C2264.31534,5903.51864 2265.81502,5904.07107 2266.69743,5905.02663 C2267.57983,5905.9822 2268.02103,5907.18424 2268.02103,5908.6328 Z M2280.03188,5908.6328 C2280.03188,5910.08137 2279.59069,5911.29254 2278.70828,5912.26637 C2277.82588,5913.24019 2276.79342,5913.72709 2275.61087,5913.72709 C2274.42833,5913.72709 2273.47691,5913.24628 2272.75658,5912.28463 L2272.75658,5917.12329 L2270.05535,5917.12329 L2270.05535,5909.04805 C2270.05535,5904.59109 2273.32925,5903.51864 2275.19767,5903.51864 C2276.32619,5903.51864 2277.82588,5904.07107 2278.70828,5905.02663 C2279.59069,5905.9822 2280.03188,5907.18424 2280.03188,5908.6328 Z M2262.79716,5911.52794 C2263.42144,5911.52794 2263.96769,5911.27536 2264.4359,5910.77019 C2264.90412,5910.26502 2265.13822,5909.61682 2265.13822,5908.82559 C2265.13822,5908.03436 2264.91012,5907.37095 2264.45391,5906.83535 C2263.9977,5906.29975 2263.45146,5906.03195 2262.81516,5906.03195 C2262.17887,5906.03195 2261.64163,5906.2967 2261.20343,5906.82622 C2260.76523,5907.35574 2260.54613,5908.01914 2260.54613,5908.81646 C2260.54613,5909.61378 2260.76523,5910.26502 2261.20343,5910.77019 C2261.64163,5911.27536 2262.17287,5911.52794 2262.79716,5911.52794 Z M2274.80801,5911.52794 C2275.4323,5911.52794 2275.97854,5911.27536 2276.44675,5910.77019 C2276.91497,5910.26502 2277.14907,5909.61682 2277.14907,5908.82559 C2277.14907,5908.03436 2276.92097,5907.37095 2276.46476,5906.83535 C2276.00855,5906.29975 2275.46231,5906.03195 2274.82602,5906.03195 C2274.18973,5906.03195 2273.65249,5906.2967 2273.21429,5906.82622 C2272.77609,5907.35574 2272.55699,5908.01914 2272.55699,5908.81646 C2272.55699,5909.61378 2272.77609,5910.26502 2273.21429,5910.77019 C2273.65249,5911.27536 2274.18372,5911.52794 2274.80801,5911.52794 Z" />
    </g>
  </g>
</svg>
