<?xml version="1.0" encoding="UTF-8"?>
<svg width="36px" height="36px" viewBox="0 0 36 36" version="1.1" xmlns="http://www.w3.org/2000/svg" xmlns:xlink="http://www.w3.org/1999/xlink">
    <!-- Generator: Sketch 46.2 (44496) - http://www.bohemiancoding.com/sketch -->
    <title>ic_orderdetail</title>
    <desc>Created with Sketch.</desc>
    <defs></defs>
    <g id="6-1.物品訂單＿分享人/使用者" stroke="none" stroke-width="1" fill="none" fill-rule="evenodd">
        <g id="Order5＿完成詳情" transform="translate(-393.000000, -195.000000)" stroke="#FFFFFF">
            <g id="Group" transform="translate(370.000000, 180.000000)">
                <g id="ic_orderdetail" transform="translate(24.000000, 16.000000)">
                    <g id="Group-11" transform="translate(9.000000, 8.000000)" stroke-linecap="round" stroke-linejoin="round">
                        <path d="M10.2348633,1 L14,1 L14,3.796875 M14,12.3348389 L14,18 L0,18 L0,1 L3.93115234,1" id="Rectangle-9" stroke-width="1.5"></path>
                        <path d="M3,7 L9,7" id="Line" stroke-width="1.5"></path>
                        <path d="M3,11 L9.51999998,11" id="Line" stroke-width="1.5"></path>
                        <rect id="Rectangle-14" stroke-width="1.5" x="4.25" y="0.25" width="5.5" height="2.5"></rect>
                        <path d="M12,2.00312478 C12,0.896829513 12.8877296,4.08562073e-14 14,4.08562073e-14 L14,4.08562073e-14 C15.1045695,4.08562073e-14 16,0.896634189 16,2.00312478 L16,12.4675325 L14,16 L12,12.4675325 L12,2.00312478 Z" id="Rectangle-10" stroke-width="1.2" transform="translate(14.000000, 8.000000) rotate(30.000000) translate(-14.000000, -8.000000) "></path>
                    </g>
                    <circle id="Oval-7" cx="17" cy="17" r="17"></circle>
                </g>
            </g>
        </g>
    </g>
</svg>