<?xml version="1.0" encoding="UTF-8"?>
<svg width="39px" height="40px" viewBox="0 0 39 40" version="1.1" xmlns="http://www.w3.org/2000/svg" xmlns:xlink="http://www.w3.org/1999/xlink">
    <!-- Generator: Sketch 46.2 (44496) - http://www.bohemiancoding.com/sketch -->
    <title>ic_bullhorn_notification</title>
    <desc>Created with Sketch.</desc>
    <defs></defs>
    <g id="notificatiom" stroke="none" stroke-width="1" fill="none" fill-rule="evenodd">
        <g id="notification-copy-2" transform="translate(-211.000000, -291.000000)">
            <g id="ic_bullhorn_notification" transform="translate(205.000000, 285.000000)">
                <rect id="Rectangle-7" fill-opacity="0" fill="#D8D8D8" x="0" y="0" width="50" height="50"></rect>
                <g id="Bullhorn" transform="translate(6.000000, 6.000000)">
                    <path d="M16.5,25.1579664 L16.5,39.5 L13.136248,39.5 L7.3442264,21.5973878 L16.5,25.1579664 Z" id="Combined-Shape" stroke="#31ABBA"></path>
                    <path d="M7.5,12.3420187 L7.5,21.6579664 L24.4999342,28.269052 L24.4979043,5.73092866 L7.5,12.3420187 Z" id="Combined-Shape" stroke="#31ABBA"></path>
                    <rect id="Rectangle-4" stroke="#31ABBA" x="24.5" y="0.5" width="7" height="33" rx="3"></rect>
                    <path d="M7.5,21.5 L7.5,12.5 L3,12.5 C1.61928813,12.5 0.5,13.6192881 0.5,15 L0.5,19 C0.5,20.3807119 1.61928813,21.5 3,21.5 L7.5,21.5 Z" id="Path" stroke="#31ABBA"></path>
                    <path d="M33.3333333,21.6666667 C36.0947571,21.6666667 38.3333333,19.4280904 38.3333333,16.6666667 C38.3333333,13.9052429 36.0947571,11.6666667 33.3333333,11.6666667 C33.3333333,12.4064092 33.3333333,20.7894476 33.3333333,21.6666667 Z" id="Oval" fill="#31ABBA"></path>
                </g>
            </g>
        </g>
    </g>
</svg>